<?xml version="1.0" standalone="no"?>
<!DOCTYPE svg PUBLIC "-//W3C//DTD SVG 20010904//EN"
 "http://www.w3.org/TR/2001/REC-SVG-20010904/DTD/svg10.dtd">
<svg version="1.0" xmlns="http://www.w3.org/2000/svg"
 width="512.000000pt" height="512.000000pt" viewBox="0 0 512.000000 512.000000"
 preserveAspectRatio="xMidYMid meet">
<metadata>
Created by potrace 1.16, written by Peter Selinger 2001-2019
</metadata>
<g transform="translate(0.000000,512.000000) scale(0.100000,-0.100000)"
fill="#000000" stroke="none">
<path d="M1980 5109 c-654 -73 -1241 -429 -1608 -976 -185 -274 -314 -616
-356 -943 -18 -140 -21 -434 -6 -560 102 -822 633 -1510 1400 -1814 140 -55
345 -109 505 -132 162 -23 458 -23 620 0 372 54 728 200 1033 426 l33 24 144
-144 c131 -131 145 -148 145 -180 0 -47 22 -125 50 -180 15 -29 111 -134 279
-302 232 -233 263 -260 326 -289 55 -26 85 -34 150 -37 172 -9 311 73 388 228
30 61 32 71 32 175 0 104 -2 114 -33 179 -29 62 -59 96 -280 317 -141 140
-267 258 -294 274 -54 30 -136 55 -188 55 -32 0 -49 14 -183 148 l-148 148 19
25 c122 156 262 423 331 636 83 251 112 439 112 713 0 778 -394 1481 -1061
1895 -272 169 -598 278 -935 315 -106 12 -368 11 -475 -1z m470 -550 c608 -75
1152 -517 1359 -1102 151 -428 126 -893 -69 -1294 -370 -759 -1244 -1131
-2039 -867 -608 202 -1041 718 -1142 1359 -16 103 -16 377 0 480 96 611 513
1125 1083 1336 257 95 520 123 808 88z"/>
<path d="M1945 4336 c-112 -37 -205 -108 -265 -203 -34 -53 -70 -159 -70 -204
l0 -29 139 0 139 0 6 35 c5 22 23 52 49 79 57 59 109 70 322 64 125 -3 167 -8
192 -21 39 -21 84 -75 99 -119 l11 -33 141 -3 142 -3 -6 33 c-32 180 -123 305
-273 377 l-76 36 -255 2 c-187 1 -266 -2 -295 -11z"/>
<path d="M1130 3771 c-87 -27 -202 -121 -216 -176 -12 -49 12 -154 56 -241
131 -258 485 -474 900 -549 141 -26 472 -31 625 -11 352 46 656 182 850 380
44 45 96 108 114 140 68 114 97 246 67 303 -20 39 -86 97 -151 131 l-50 27
-1085 2 c-597 1 -1096 -2 -1110 -6z"/>
<path d="M842 2698 l3 -433 26 -56 c36 -76 90 -133 157 -166 l57 -28 1140 0
1140 0 57 28 c65 32 115 84 155 159 l28 53 3 438 c2 334 0 437 -9 437 -7 0
-49 -38 -93 -84 -105 -108 -216 -189 -363 -264 -551 -281 -1283 -281 -1833 -1
-146 74 -263 159 -365 265 -45 46 -87 84 -93 84 -10 0 -12 -95 -10 -432z"/>
</g>
</svg>
